<svg width="248" height="248" viewBox="0 0 248 248" fill="none" xmlns="http://www.w3.org/2000/svg">
<rect width="248" height="248" rx="124" fill="url(#paint0_radial_7_1063)"/>
<path d="M43.3581 110.92V139H36.5181V122.16L30.2381 139H24.7181L18.3981 122.12V139H11.5581V110.92H19.6381L27.5181 130.36L35.3181 110.92H43.3581ZM61.5569 139.28C58.9169 139.28 56.4902 138.667 54.2769 137.44C52.0902 136.213 50.3435 134.507 49.0369 132.32C47.7569 130.107 47.1169 127.627 47.1169 124.88C47.1169 122.133 47.7569 119.667 49.0369 117.48C50.3435 115.293 52.0902 113.587 54.2769 112.36C56.4902 111.133 58.9169 110.52 61.5569 110.52C64.1969 110.52 66.6102 111.133 68.7969 112.36C71.0102 113.587 72.7435 115.293 73.9969 117.48C75.2769 119.667 75.9169 122.133 75.9169 124.88C75.9169 127.627 75.2769 130.107 73.9969 132.32C72.7169 134.507 70.9835 136.213 68.7969 137.44C66.6102 138.667 64.1969 139.28 61.5569 139.28ZM61.5569 133.04C63.7969 133.04 65.5835 132.293 66.9169 130.8C68.2769 129.307 68.9569 127.333 68.9569 124.88C68.9569 122.4 68.2769 120.427 66.9169 118.96C65.5835 117.467 63.7969 116.72 61.5569 116.72C59.2902 116.72 57.4769 117.453 56.1169 118.92C54.7835 120.387 54.1169 122.373 54.1169 124.88C54.1169 127.36 54.7835 129.347 56.1169 130.84C57.4769 132.307 59.2902 133.04 61.5569 133.04ZM106.082 110.92L96.1222 139H87.5622L77.6022 110.92H84.8822L91.8422 132.12L98.8422 110.92H106.082ZM115.781 116.4V122.08H124.941V127.36H115.781V133.52H126.141V139H108.941V110.92H126.141V116.4H115.781ZM162.382 110.92V139H155.542V122.16L149.262 139H143.742L137.422 122.12V139H130.582V110.92H138.662L146.542 130.36L154.342 110.92H162.382ZM184.3 124.6C185.927 124.947 187.234 125.76 188.22 127.04C189.207 128.293 189.7 129.733 189.7 131.36C189.7 133.707 188.874 135.573 187.22 136.96C185.594 138.32 183.314 139 180.38 139H167.3V110.92H179.94C182.794 110.92 185.02 111.573 186.62 112.88C188.247 114.187 189.06 115.96 189.06 118.2C189.06 119.853 188.62 121.227 187.74 122.32C186.887 123.413 185.74 124.173 184.3 124.6ZM174.14 122.28H178.62C179.74 122.28 180.594 122.04 181.18 121.56C181.794 121.053 182.1 120.32 182.1 119.36C182.1 118.4 181.794 117.667 181.18 117.16C180.594 116.653 179.74 116.4 178.62 116.4H174.14V122.28ZM179.18 133.48C180.327 133.48 181.207 133.227 181.82 132.72C182.46 132.187 182.78 131.427 182.78 130.44C182.78 129.453 182.447 128.68 181.78 128.12C181.14 127.56 180.247 127.28 179.1 127.28H174.14V133.48H179.18ZM207.988 139L202.148 128.4H200.508V139H193.668V110.92H205.148C207.361 110.92 209.241 111.307 210.788 112.08C212.361 112.853 213.534 113.92 214.308 115.28C215.081 116.613 215.468 118.107 215.468 119.76C215.468 121.627 214.934 123.293 213.868 124.76C212.828 126.227 211.281 127.267 209.228 127.88L215.708 139H207.988ZM200.508 123.56H204.748C206.001 123.56 206.934 123.253 207.548 122.64C208.188 122.027 208.508 121.16 208.508 120.04C208.508 118.973 208.188 118.133 207.548 117.52C206.934 116.907 206.001 116.6 204.748 116.6H200.508V123.56ZM226.601 116.4V122.08H235.761V127.36H226.601V133.52H236.961V139H219.761V110.92H236.961V116.4H226.601Z" fill="white"/>
<path d="M15.66 149.7V152.54H20.24V155.18H15.66V158.26H20.84V161H12.24V146.96H20.84V149.7H15.66ZM28.1403 161.14C27.1136 161.14 26.1936 160.973 25.3803 160.64C24.567 160.307 23.9136 159.813 23.4203 159.16C22.9403 158.507 22.687 157.72 22.6603 156.8H26.3003C26.3536 157.32 26.5336 157.72 26.8403 158C27.147 158.267 27.547 158.4 28.0403 158.4C28.547 158.4 28.947 158.287 29.2403 158.06C29.5336 157.82 29.6803 157.493 29.6803 157.08C29.6803 156.733 29.5603 156.447 29.3203 156.22C29.0936 155.993 28.807 155.807 28.4603 155.66C28.127 155.513 27.647 155.347 27.0203 155.16C26.1136 154.88 25.3736 154.6 24.8003 154.32C24.227 154.04 23.7336 153.627 23.3203 153.08C22.907 152.533 22.7003 151.82 22.7003 150.94C22.7003 149.633 23.1736 148.613 24.1203 147.88C25.067 147.133 26.3003 146.76 27.8203 146.76C29.367 146.76 30.6136 147.133 31.5603 147.88C32.507 148.613 33.0136 149.64 33.0803 150.96H29.3803C29.3536 150.507 29.187 150.153 28.8803 149.9C28.5736 149.633 28.1803 149.5 27.7003 149.5C27.287 149.5 26.9536 149.613 26.7003 149.84C26.447 150.053 26.3203 150.367 26.3203 150.78C26.3203 151.233 26.5336 151.587 26.9603 151.84C27.387 152.093 28.0536 152.367 28.9603 152.66C29.867 152.967 30.6003 153.26 31.1603 153.54C31.7336 153.82 32.227 154.227 32.6403 154.76C33.0536 155.293 33.2603 155.98 33.2603 156.82C33.2603 157.62 33.0536 158.347 32.6403 159C32.2403 159.653 31.6536 160.173 30.8803 160.56C30.107 160.947 29.1936 161.14 28.1403 161.14ZM51.265 146.96V161H47.845V152.58L44.705 161H41.945L38.785 152.56V161H35.365V146.96H39.405L43.345 156.68L47.245 146.96H51.265ZM62.4644 158.52H57.2244L56.3844 161H52.8044L57.8844 146.96H61.8444L66.9244 161H63.3044L62.4644 158.52ZM61.5844 155.88L59.8444 150.74L58.1244 155.88H61.5844ZM76.1288 146.96V161H72.7088V146.96H76.1288ZM83.8672 146.96C85.3472 146.96 86.6405 147.253 87.7472 147.84C88.8539 148.427 89.7072 149.253 90.3072 150.32C90.9205 151.373 91.2272 152.593 91.2272 153.98C91.2272 155.353 90.9205 156.573 90.3072 157.64C89.7072 158.707 88.8472 159.533 87.7272 160.12C86.6205 160.707 85.3339 161 83.8672 161H78.6072V146.96H83.8672ZM83.6472 158.04C84.9405 158.04 85.9472 157.687 86.6672 156.98C87.3872 156.273 87.7472 155.273 87.7472 153.98C87.7472 152.687 87.3872 151.68 86.6672 150.96C85.9472 150.24 84.9405 149.88 83.6472 149.88H82.0272V158.04H83.6472ZM101.878 158.52H96.6384L95.7984 161H92.2184L97.2984 146.96H101.258L106.338 161H102.718L101.878 158.52ZM100.998 155.88L99.2584 150.74L97.5384 155.88H100.998ZM111.423 149.58V146.4H116.963V161H113.403V149.58H111.423Z" fill="#FFA500"/>
<defs>
<radialGradient id="paint0_radial_7_1063" cx="0" cy="0" r="1" gradientUnits="userSpaceOnUse" gradientTransform="translate(124 124) rotate(84.158) scale(260.352)">
<stop stop-color="#2267A7"/>
<stop offset="1" stop-color="#0D2841"/>
</radialGradient>
</defs>
</svg>
