<svg width="396" height="145" viewBox="0 0 396 145" fill="none" xmlns="http://www.w3.org/2000/svg">
<path d="M0 17H395.5L329.75 81L395.5 145H0L56 81L0 17Z" fill="url(#paint0_radial_2_17)"/>
<rect x="58" width="271" height="145" fill="url(#paint1_linear_2_17)"/>
<path d="M104.794 57.112V88H97.2699V69.476L90.3619 88H84.2899L77.3379 69.432V88H69.8139V57.112H78.7019L87.3699 78.496L95.9499 57.112H104.794ZM124.813 88.308C121.909 88.308 119.239 87.6333 116.805 86.284C114.399 84.9347 112.478 83.0573 111.041 80.652C109.633 78.2173 108.929 75.4893 108.929 72.468C108.929 69.4467 109.633 66.7333 111.041 64.328C112.478 61.9227 114.399 60.0453 116.805 58.696C119.239 57.3467 121.909 56.672 124.813 56.672C127.717 56.672 130.371 57.3467 132.777 58.696C135.211 60.0453 137.118 61.9227 138.497 64.328C139.905 66.7333 140.609 69.4467 140.609 72.468C140.609 75.4893 139.905 78.2173 138.497 80.652C137.089 83.0573 135.182 84.9347 132.777 86.284C130.371 87.6333 127.717 88.308 124.813 88.308ZM124.813 81.444C127.277 81.444 129.242 80.6227 130.709 78.98C132.205 77.3373 132.953 75.1667 132.953 72.468C132.953 69.74 132.205 67.5693 130.709 65.956C129.242 64.3133 127.277 63.492 124.813 63.492C122.319 63.492 120.325 64.2987 118.829 65.912C117.362 67.5253 116.629 69.7107 116.629 72.468C116.629 75.196 117.362 77.3813 118.829 79.024C120.325 80.6373 122.319 81.444 124.813 81.444ZM173.79 57.112L162.834 88H153.418L142.462 57.112H150.47L158.126 80.432L165.826 57.112H173.79ZM184.459 63.14V69.388H194.535V75.196H184.459V81.972H195.855V88H176.935V57.112H195.855V63.14H184.459ZM235.72 57.112V88H228.196V69.476L221.288 88H215.216L208.264 69.432V88H200.74V57.112H209.628L218.296 78.496L226.876 57.112H235.72ZM259.83 72.16C261.62 72.5413 263.057 73.436 264.142 74.844C265.228 76.2227 265.77 77.8067 265.77 79.596C265.77 82.1773 264.861 84.2307 263.042 85.756C261.253 87.252 258.745 88 255.518 88H241.13V57.112H255.034C258.173 57.112 260.622 57.8307 262.382 59.268C264.172 60.7053 265.066 62.656 265.066 65.12C265.066 66.9387 264.582 68.4493 263.614 69.652C262.676 70.8547 261.414 71.6907 259.83 72.16ZM248.654 69.608H253.582C254.814 69.608 255.753 69.344 256.398 68.816C257.073 68.2587 257.41 67.452 257.41 66.396C257.41 65.34 257.073 64.5333 256.398 63.976C255.753 63.4187 254.814 63.14 253.582 63.14H248.654V69.608ZM254.198 81.928C255.46 81.928 256.428 81.6493 257.102 81.092C257.806 80.5053 258.158 79.6693 258.158 78.584C258.158 77.4987 257.792 76.648 257.058 76.032C256.354 75.416 255.372 75.108 254.11 75.108H248.654V81.928H254.198ZM285.886 88L279.462 76.34H277.658V88H270.134V57.112H282.762C285.197 57.112 287.265 57.5373 288.966 58.388C290.697 59.2387 291.988 60.412 292.838 61.908C293.689 63.3747 294.114 65.0173 294.114 66.836C294.114 68.8893 293.528 70.7227 292.354 72.336C291.21 73.9493 289.509 75.0933 287.25 75.768L294.378 88H285.886ZM277.658 71.016H282.322C283.701 71.016 284.728 70.6787 285.402 70.004C286.106 69.3293 286.458 68.376 286.458 67.144C286.458 65.9707 286.106 65.0467 285.402 64.372C284.728 63.6973 283.701 63.36 282.322 63.36H277.658V71.016ZM306.361 63.14V69.388H316.437V75.196H306.361V81.972H317.757V88H298.837V57.112H317.757V63.14H306.361Z" fill="white"/>
<defs>
<radialGradient id="paint0_radial_2_17" cx="0" cy="0" r="1" gradientUnits="userSpaceOnUse" gradientTransform="translate(197.75 81) scale(207.75 67.2364)">
<stop stop-color="#2F8CE3"/>
<stop offset="1" stop-color="#1A4D7D"/>
</radialGradient>
<linearGradient id="paint1_linear_2_17" x1="193.938" y1="-64.5703" x2="174.211" y2="280.487" gradientUnits="userSpaceOnUse">
<stop stop-color="#1A4D7D"/>
<stop offset="1" stop-color="#2F8CE3"/>
</linearGradient>
</defs>
</svg>
