<svg width="128" height="128" viewBox="0 0 128 128" fill="none" xmlns="http://www.w3.org/2000/svg">
<g clip-path="url(#clip0_28_4)">
<rect width="128" height="128" fill="#09090F"/>
<circle cx="63.5" cy="44.5" r="34.5" fill="#4DA8DA"/>
<circle cx="67" cy="154" r="72" fill="#4DA8DA"/>
<path d="M61.806 56C67.1963 58.9906 79.2922 64.0583 84.8692 60.6047C84.9128 60.5771 84.9564 60.5493 85 60.5214C84.9568 60.5497 84.9132 60.5775 84.8692 60.6047C74.8867 66.9279 65.3428 64.196 61.806 62.0285C56.791 68.057 47.1791 63.5356 43 60.5214C46.5104 62.9328 56.3731 59.5166 61.806 56Z" fill="black"/>
<path d="M61.806 56C67.2388 59.0142 79.4836 64.1385 85 60.5214C74.9701 66.9517 65.3582 64.2054 61.806 62.0285C56.791 68.057 47.1791 63.5356 43 60.5214C46.5104 62.9328 56.3731 59.5166 61.806 56Z" stroke="black"/>
</g>
<defs>
<clipPath id="clip0_28_4">
<rect width="128" height="128" fill="white"/>
</clipPath>
</defs>
</svg>
